<svg xmlns="http://www.w3.org/2000/svg" width="59" height="9" viewBox="0 0 59 9"><g><g><path fill="#ff7828" d="M4.5 0l1.483 2.828 3.016.61-2.1 2.357L7.282 9 4.5 7.628 1.72 9l.38-3.205L0 3.438l3.017-.61L4.5 0m12 0l1.483 2.828 3.016.61-2.1 2.357L19.282 9 16.5 7.628 13.72 9l.38-3.205L12 3.438l3.017-.61L16.5 0m12 0l1.483 2.828 3.016.61-2.1 2.357L31.282 9 28.5 7.628 25.72 9l.38-3.205L24 3.438l3.017-.61L28.5 0m13 0l1.483 2.828 3.016.61-2.1 2.357L44.282 9 41.5 7.628 38.72 9l.38-3.205L37 3.438l3.017-.61L41.5 0m13 0l1.483 2.828 3.016.61-2.1 2.357L57.282 9 54.5 7.628 51.72 9l.38-3.205L50 3.438l3.017-.61L54.5 0"/></g></g></svg>